<svg width="230" height="230" viewBox="0 0 230 230" fill="none" xmlns="http://www.w3.org/2000/svg">
<rect x="1" y="1" width="228" height="228" rx="29" fill="white"/>
<path d="M108.65 126.9C106.85 127.5 105.4 127.8 104.3 127.8L100.25 165.6L85.25 167.1L76.7 70.5C82 68.8 89 67.25 97.7 65.85C106.5 64.45 114.9 63.75 122.9 63.75C135.7 63.75 145.95 66.15 153.65 70.95C155.45 76.35 156.35 81.3 156.35 85.8C156.35 98.4 149.1 108.8 134.6 117L159.8 164.85L149.3 170.7L108.65 126.9ZM127.4 89.85C127.4 82.75 124.25 77.3 117.95 73.5C115.55 73.5 112.85 74 109.85 75L105.35 118.2C112.25 115.1 117.65 110.95 121.55 105.75C125.45 100.45 127.4 95.15 127.4 89.85Z" fill="black"/>
<rect x="1" y="1" width="228" height="228" rx="29" stroke="black" stroke-width="2"/>
</svg>
